<?xml version="1.0" standalone="no"?>
<!DOCTYPE svg PUBLIC "-//W3C//DTD SVG 20010904//EN"
 "http://www.w3.org/TR/2001/REC-SVG-20010904/DTD/svg10.dtd">
<svg version="1.0" xmlns="http://www.w3.org/2000/svg"
 width="900.000000pt" height="900.000000pt" viewBox="0 0 900.000000 900.000000"
 preserveAspectRatio="xMidYMid meet">
<metadata>
Created by potrace 1.11, written by Peter Selinger 2001-2013
</metadata>
<g transform="translate(0.000000,900.000000) scale(0.100000,-0.100000)"
fill="#000000" stroke="none">
<path d="M350 8145 l0 -465 173 -2 172 -3 6 -1545 c6 -1644 6 -1646 55 -1880
19 -90 60 -232 81 -280 50 -114 82 -174 131 -250 316 -491 859 -745 1592 -745
695 0 1163 186 1455 577 145 194 252 455 310 756 69 352 75 527 75 2075 l0
1297 175 0 175 0 0 465 0 465 -885 0 -885 0 0 -465 0 -465 173 -2 172 -3 3
-1220 c2 -1022 0 -1254 -13 -1430 -31 -421 -93 -616 -244 -766 -110 -109 -212
-152 -402 -171 -136 -14 -308 -1 -405 31 -266 85 -386 269 -456 696 -21 127
-22 157 -25 1498 l-4 1367 171 0 170 0 0 465 0 465 -885 0 -885 0 0 -465z"/>
<path d="M4846 8601 c-3 -4 -4 -212 -3 -462 l2 -454 175 -5 175 -5 3 -1847 2
-1848 -174 0 c-151 0 -175 -2 -180 -16 -4 -9 -6 -221 -6 -470 l1 -454 879 0
880 0 0 470 0 470 -170 0 -170 0 0 710 0 710 658 2 657 3 3 468 2 467 -660 0
-660 0 2 668 3 667 717 3 718 2 2 -257 3 -258 472 -3 473 -2 2 721 c2 396 1
723 -1 725 -8 8 -3800 4 -3805 -5z"/>
<path d="M7819 2590 c-80 -52 -145 -122 -155 -165 -10 -40 -19 -48 -87 -74
-38 -15 -25 -31 24 -31 21 0 39 -2 39 -6 0 -3 -6 -35 -14 -72 -8 -37 -31 -150
-51 -251 -45 -229 -65 -263 -121 -210 l-21 20 -17 -50 c-21 -64 -22 -61 17
-61 43 0 105 44 152 107 47 65 92 206 152 478 l9 40 58 5 c49 4 60 9 67 28 9
25 12 24 -58 22 -61 -2 -62 0 -37 88 17 59 38 92 60 92 7 0 27 -12 44 -26 17
-15 33 -24 36 -21 7 7 23 76 24 100 0 29 -69 22 -121 -13z"/>
<path d="M4563 2550 c-84 -20 -135 -82 -136 -168 -1 -58 24 -105 67 -126 17
-8 64 -22 104 -32 94 -21 122 -43 122 -95 0 -31 -7 -47 -29 -70 -26 -25 -37
-29 -88 -29 -40 0 -68 6 -91 20 -35 22 -39 29 -45 75 -2 18 -10 31 -20 33 -14
3 -17 -6 -19 -52 -1 -31 -2 -64 -2 -73 -2 -29 85 -54 174 -51 108 4 165 35
203 108 31 62 34 101 9 149 -25 50 -57 68 -153 87 -109 21 -134 38 -134 94 0
59 37 90 106 90 77 0 119 -28 119 -80 0 -10 6 -20 14 -23 11 -4 16 8 21 53 4
32 4 63 1 69 -15 24 -154 38 -223 21z"/>
<path d="M6155 2546 c-43 -8 -61 -16 -63 -29 -2 -11 3 -17 15 -17 31 0 91 -74
162 -199 l42 -74 -3 -96 -3 -96 -30 -5 c-16 -3 -30 -11 -30 -19 0 -10 27 -13
125 -13 107 0 125 2 128 16 3 12 -4 16 -26 16 -38 0 -42 11 -42 122 0 103 1
104 116 279 35 53 64 101 64 108 0 6 -13 11 -29 11 -26 0 -35 -11 -101 -125
-39 -69 -75 -125 -79 -125 -4 0 -26 37 -50 83 -56 107 -110 179 -131 175 -3 0
-32 -6 -65 -12z"/>
<path d="M352 2532 c2 -9 14 -19 28 -21 14 -1 28 -8 32 -15 4 -6 8 -94 8 -195
0 -166 2 -189 21 -227 27 -57 85 -85 184 -92 128 -8 219 42 244 133 6 22 11
110 11 195 0 177 4 198 33 202 12 2 23 11 25 20 3 16 -7 17 -87 17 -83 0 -91
-2 -91 -20 0 -14 7 -19 30 -19 40 0 42 -13 38 -218 l-3 -171 -29 -30 c-35 -37
-98 -52 -160 -39 -86 18 -105 66 -105 263 0 150 8 188 39 195 14 3 26 13 28
23 3 14 -11 16 -123 16 -114 0 -126 -1 -123 -17z"/>
<path d="M1110 2530 c0 -14 9 -20 33 -22 l32 -3 3 -224 c3 -238 0 -251 -45
-251 -18 0 -24 -5 -21 -17 2 -10 9 -18 16 -17 6 1 48 2 93 3 60 1 80 4 77 14
-3 6 -16 13 -31 15 -35 4 -39 27 -35 226 l3 160 174 -208 c96 -114 179 -210
185 -212 6 -2 24 -5 39 -6 l28 -3 -1 230 c-1 277 2 295 41 295 22 0 29 5 29
19 0 18 -8 19 -95 19 -87 0 -95 -1 -95 -19 0 -14 7 -19 29 -19 17 0 32 -4 36
-9 7 -12 9 -330 2 -337 -5 -6 -129 136 -251 288 l-78 97 -84 0 c-74 -1 -84 -3
-84 -19z"/>
<path d="M1914 2538 c-9 -14 6 -28 31 -28 12 0 26 -7 29 -16 3 -9 6 -111 6
-229 0 -222 -1 -228 -45 -237 -11 -2 -20 -9 -20 -16 0 -10 29 -14 123 -15 67
-1 122 1 122 6 0 4 1 10 2 15 1 4 -11 9 -28 12 -26 5 -30 10 -36 55 -8 62 -8
256 1 350 6 65 8 70 31 74 25 3 42 19 34 32 -6 10 -244 7 -250 -3z"/>
<path d="M2327 2544 c-12 -12 6 -34 28 -34 27 0 37 -19 139 -265 37 -88 71
-169 76 -180 5 -11 14 -32 20 -47 13 -37 65 -40 80 -5 203 492 204 495 233
499 12 2 22 10 22 18 0 12 -18 15 -93 17 -84 3 -93 1 -90 -15 2 -10 14 -18 31
-20 18 -2 27 -9 27 -22 0 -17 -57 -177 -80 -225 -5 -11 -17 -41 -27 -67 -10
-25 -22 -46 -28 -46 -11 1 -146 328 -142 343 2 6 17 12 33 15 17 3 29 11 29
20 0 12 -22 15 -126 17 -70 1 -129 0 -132 -3z"/>
<path d="M3091 2541 c-19 -12 -5 -31 24 -31 12 0 26 -7 29 -16 3 -9 6 -112 6
-229 l0 -214 -27 -26 c-15 -14 -26 -25 -23 -25 77 -4 400 -3 403 0 3 3 7 33 9
68 4 55 2 62 -14 62 -13 0 -18 -8 -18 -29 0 -47 -30 -61 -127 -61 l-82 0 -6
53 c-4 28 -5 77 -3 107 l3 55 63 3 c68 3 89 -6 94 -40 2 -12 9 -23 16 -26 9
-3 12 18 12 82 0 70 -3 86 -15 86 -9 0 -15 -9 -15 -24 0 -13 -7 -27 -16 -30
-25 -10 -132 -7 -139 4 -3 5 -3 50 1 100 l7 91 86 -3 86 -3 10 -32 c14 -50 32
-40 38 20 2 28 3 55 0 60 -6 10 -385 9 -402 -2z"/>
<path d="M3702 2532 c2 -10 16 -19 33 -22 l30 -5 3 -224 c3 -238 0 -251 -45
-251 -17 0 -23 -5 -21 -16 2 -13 23 -16 125 -17 85 -1 124 2 127 10 6 16 -3
23 -30 23 -13 0 -28 9 -34 19 -6 12 -10 104 -10 229 0 238 0 239 72 229 56 -8
90 -43 92 -95 1 -70 -45 -122 -109 -122 -30 0 -31 -7 -7 -32 9 -11 51 -74 92
-141 l76 -122 73 0 c79 0 104 15 59 36 -25 11 -182 233 -176 249 2 5 19 19 38
32 73 49 91 151 36 207 l-26 26 -201 2 c-181 1 -200 0 -197 -15z"/>
<path d="M5030 2529 c0 -12 9 -19 28 -21 l27 -3 0 -235 0 -235 -29 -5 c-17 -3
-29 -8 -28 -12 1 -5 2 -11 2 -15 0 -5 55 -8 123 -7 97 1 122 4 122 15 0 8 -13
16 -30 19 l-30 5 0 235 0 235 30 5 c18 3 30 11 30 20 0 12 -21 15 -122 16
-112 1 -123 0 -123 -17z"/>
<path d="M5440 2483 c0 -56 2 -63 20 -63 15 0 20 7 20 28 0 42 17 52 87 52
l63 0 -2 -232 -3 -233 -30 -5 c-16 -3 -30 -11 -30 -19 0 -10 29 -13 128 -14
115 -2 127 0 127 16 0 12 -8 17 -29 17 -17 0 -31 6 -35 16 -3 9 -6 114 -6 235
l0 220 72 -3 72 -3 9 -37 c5 -22 15 -38 23 -38 11 0 14 16 14 63 l0 62 -250 0
-250 0 0 -62z"/>
<path d="M7225 2374 c-43 -16 -110 -65 -135 -98 -52 -72 -74 -243 -37 -297 52
-77 208 -65 314 25 72 61 114 226 80 309 -28 67 -130 95 -222 61z m98 -53 c57
-56 8 -303 -67 -339 -40 -20 -83 -7 -102 31 -36 69 11 282 70 318 35 22 71 18
99 -10z"/>
<path d="M3075 1761 c-33 -4 -89 -16 -125 -25 -232 -60 -406 -241 -455 -475
-18 -84 -20 -295 -4 -373 43 -213 180 -381 369 -451 174 -64 457 -64 630 0
138 52 272 169 333 293 69 137 81 195 82 380 0 143 -3 174 -22 235 -66 208
-220 345 -451 401 -70 17 -276 25 -357 15z m286 -133 c104 -48 196 -174 234
-323 22 -86 30 -272 16 -380 -35 -258 -141 -393 -339 -427 -90 -15 -182 0
-265 44 -150 80 -236 285 -237 561 0 383 143 564 441 554 75 -3 106 -9 150
-29z"/>
<path d="M723 1743 l-373 -3 0 -35 c0 -33 1 -34 48 -40 82 -11 96 -19 105 -56
5 -19 11 -218 14 -444 5 -409 -4 -626 -27 -649 -6 -6 -39 -13 -73 -16 l-62 -5
-3 -35 -3 -36 316 -1 316 -2 -3 37 -3 37 -75 7 c-45 5 -80 14 -89 23 -21 21
-34 515 -13 522 7 3 75 4 152 1 166 -4 170 -6 179 -100 l6 -63 40 0 40 0 3
203 2 202 -44 0 -44 0 -4 -55 c-3 -31 -10 -61 -16 -67 -14 -14 -172 -22 -256
-14 l-66 8 0 203 c0 111 3 216 6 232 l6 30 104 6 c107 7 240 -5 284 -26 22
-11 26 -21 34 -90 l9 -77 39 0 38 0 0 56 c0 31 5 97 12 145 6 49 10 91 7 93
-9 9 -249 12 -606 9z"/>
<path d="M6278 1743 l-337 -3 1 -34 c1 -33 1 -33 69 -45 37 -7 74 -20 81 -28
19 -23 24 -1067 6 -1102 -7 -13 -30 -33 -50 -44 -27 -13 -38 -26 -38 -42 l0
-22 346 -1 c431 -1 504 8 662 86 183 90 306 242 363 448 29 104 31 296 4 394
-68 244 -232 368 -519 390 -66 5 -150 9 -186 7 -36 -1 -217 -3 -402 -4z m507
-118 c84 -20 134 -46 186 -98 81 -81 119 -169 139 -324 35 -272 -79 -546 -260
-627 -86 -39 -215 -59 -330 -53 -53 3 -103 9 -112 12 -11 4 -19 23 -23 48 -9
61 -1 1030 8 1045 12 18 307 16 392 -3z"/>
<path d="M7862 1738 c-5 -7 -13 -24 -17 -38 -8 -27 -209 -532 -225 -565 -5
-11 -34 -82 -64 -157 -103 -257 -111 -275 -161 -380 -32 -70 -40 -78 -73 -88
-20 -5 -47 -10 -59 -10 -20 0 -23 -5 -23 -39 l0 -39 215 0 215 0 0 38 0 37
-61 6 c-36 3 -68 12 -77 21 -14 14 -14 21 2 73 10 32 31 95 48 141 l31 82 245
-2 245 -3 48 -120 c49 -122 58 -168 38 -181 -7 -4 -37 -10 -68 -13 l-56 -6 -3
-37 -3 -37 297 2 298 2 0 35 c0 34 -2 35 -52 45 -28 5 -58 17 -66 25 -8 8 -28
49 -46 90 -18 41 -45 102 -60 135 -15 33 -73 168 -129 300 -111 262 -106 250
-150 348 -17 38 -31 71 -31 73 0 5 -16 42 -55 129 -7 17 -25 56 -39 88 l-25
57 -64 0 c-40 0 -68 -5 -75 -12z m60 -488 c101 -245 128 -312 128 -316 0 -2
-88 -4 -195 -4 -107 0 -195 3 -195 6 0 5 149 380 173 437 7 15 16 26 21 24 5
-2 35 -68 68 -147z"/>
<path d="M1402 1703 l3 -38 65 -8 c36 -4 72 -15 80 -23 13 -13 15 -88 15 -553
0 -602 5 -560 -71 -596 -23 -11 -34 -23 -34 -38 l0 -22 455 -2 c250 -2 465 1
478 6 21 8 24 19 40 153 10 78 17 153 17 164 0 22 -3 22 -71 15 -3 -1 -11 -31
-18 -68 -21 -109 -33 -131 -78 -140 -21 -4 -128 -8 -238 -8 l-200 0 -3 415
c-3 446 3 650 21 674 8 10 36 18 75 22 l62 7 0 38 0 39 -301 0 -300 0 3 -37z"/>
<path d="M3910 1706 c0 -33 2 -35 43 -41 81 -12 96 -16 109 -32 10 -13 13
-120 13 -537 0 -606 4 -578 -85 -586 -69 -7 -80 -14 -80 -53 l0 -32 300 0 300
-1 0 37 c0 33 -3 37 -31 43 -17 3 -46 6 -64 6 -57 0 -59 10 -65 259 -6 244 -2
812 6 849 4 21 9 22 105 22 108 0 144 -10 195 -53 107 -90 101 -293 -12 -398
-47 -44 -89 -59 -161 -59 -69 0 -76 -16 -30 -72 49 -61 133 -191 277 -430
l124 -208 178 0 178 0 0 40 c0 37 -2 39 -36 46 -27 5 -47 20 -84 65 -54 64
-351 505 -357 530 -3 11 15 25 61 48 130 64 206 172 214 304 7 114 -44 207
-143 260 -39 22 -50 22 -497 25 l-458 3 0 -35z"/>
<path d="M5292 1703 l3 -38 63 -6 c35 -3 68 -11 75 -18 36 -36 34 -1072 -2
-1115 -9 -11 -30 -16 -61 -16 -70 0 -80 -6 -80 -49 l0 -36 300 0 300 -1 0 37
c0 33 -3 37 -31 43 -17 3 -47 6 -65 6 -56 0 -61 17 -68 267 -4 123 -3 361 0
530 7 302 8 308 30 330 19 18 34 23 79 23 l55 0 0 40 0 40 -301 0 -300 0 3
-37z"/>
</g>
</svg>
